# xmcd
#
# Track frame offsets:
#	150
#	15585
#	29252
#	47855
#	66370
#	97797
#	113527
#	135660
#	157327
#	177158
#	195775
#	213752
#	240070
#	256255
#	276707
#	295620
#	310575
#	326447
#
# Disc length: 4596 seconds
#
# Revision: 1
# Processed by: cddbd v1.5.1PL0 Copyright (c) Steve Scherf et al.
# Submitted via: audiograbber 1.83.01
#
DISCID=eb11f212
DTITLE=Barry White - The Best of
DYEAR=2000
DGENRE=
TTITLE0=Youre the first, the last, my everything
TTITLE1=Can't get enough of qour love babe
TTITLE2=Let the music play
TTITLE3=Don't make me wait too long
TTITLE4=I'll do for you anything you want me to
TTITLE5=Sho you right
TTITLE6=What am I gonna do with you
TTITLE7=Come on
TTITLE8=I am gonna love you just a little more Baby
TTITLE9=Never, never gonna give you up
TTITLE10=Baby we better try and get it together
TTITLE11=Just the way you are
TTITLE12=Dark and lovely
TTITLE13=You see the trouble with me
TTITLE14=It's ecstasy you lay down
TTITLE15=The right night
TTITLE16=Love's theme
TTITLE17=Let the musik play (Club Deluxe Edit)
EXTD=
EXTT0=
EXTT1=
EXTT2=
EXTT3=
EXTT4=
EXTT5=
EXTT6=
EXTT7=
EXTT8=
EXTT9=
EXTT10=
EXTT11=
EXTT12=
EXTT13=
EXTT14=
EXTT15=
EXTT16=
EXTT17=
PLAYORDER=
